<svg xmlns="http://www.w3.org/2000/svg" xmlns:xlink="http://www.w3.org/1999/xlink" version="1.1" x="0px" y="0px" width="100.0px" height="100px" viewBox="0 0 512 512" enable-background="new 0 0 512 512" xml:space="preserve" style="fill: #0D47A1;">
<g id="Layer_2">
	<g>
		<path d="M348.158,205.79c-21.63,0-40.589,14.21-46.278,35.21H76v26h225.881c5.688,20,24.647,35.206,46.277,35.206    c21.631,0,40.591-15.206,46.279-35.206H436v-26h-41.562C388.749,220,369.789,205.79,348.158,205.79z M348.158,276.266    c-12.355,0-22.408-10.052-22.408-22.406c0-12.355,10.053-22.408,22.408-22.408c12.354,0,22.405,10.053,22.405,22.408    C370.563,266.214,360.513,276.266,348.158,276.266z"/>
		<path d="M217.133,133c-5.688-21-24.649-35.21-46.28-35.21c-21.63,0-40.589,14.21-46.276,35.21H76v25h48.576    c5.688,21,24.647,35.207,46.276,35.207c21.631,0,40.591-14.207,46.279-35.207H436v-25H217.133z M170.853,167.907    c-12.355,0-22.407-10.052-22.407-22.407c0-12.354,10.052-22.406,22.407-22.406c12.354,0,22.406,10.052,22.406,22.406    C193.259,157.855,183.207,167.907,170.853,167.907z"/>
		<path d="M212.801,312.791c-21.629,0-40.588,15.209-46.277,35.209H76v26h90.524c5.688,21,24.647,35.208,46.276,35.208    c21.63,0,40.59-14.208,46.278-35.208H436v-26H259.079C253.391,328,234.432,312.791,212.801,312.791z M212.801,383.673    c-12.355,0-22.408-10.052-22.408-22.406c0-12.355,10.053-22.407,22.408-22.407c12.354,0,22.405,10.052,22.405,22.407    C235.206,373.621,225.155,383.673,212.801,383.673z"/>
	</g>
</g>
<g id="Layer_3">
</g>
</svg>
